<?xml version="1.0" encoding="UTF-8"?>
<svg viewBox="0 0 311 217" xmlns="http://www.w3.org/2000/svg">
 <path d="m310 85h1v1c-0.66666 0.66666-1 1.3333-1 2-0.66666 0-2 0.33334-4 1h-4c0-0.66666-3.3333-3-10-7-6.6667-4.6667-12.667-8.3333-18-11-6-2-11.333-4.3333-16-7-4.6667-2.6667-9.6667-6-15-10-6-4-11-6.6667-15-8-4.6667-1.3333-8.3333-4-11-8l-4-6v-1h-1v-1h-1v-1h-1v-1h-2v-1h-1v-1h-1l1 10c0.66666 6 1.6667 9.6667 3 11 2 0.66666 4.3333 1.6667 7 3 3.3333 1.3333 5.6667 3.6667 7 7 2 3.3333 4 5.3333 6 6 1.3333 0.66666 2.3333 1 3 1h1l1 1 1 1h1v1h1v1h-2l-4 1c-2.6667 0.66666-5 1-7 1s-5.6667 0.33334-11 1l-7 1-1-1-1-1h-1v-2c0-1.3333 1-2.6667 3-4l3-2v-2h-1l-1-1c-0.66666-0.66666-2.6667-1.6667-6-3s-5.6667-5-7-11l-3-8v-1h-1l-1-1h-2v2l-1 1-1 2-5 18c-3.3333 12.667-7.6667 22.667-13 30-4.6667 6.6667-9.3333 13.667-14 21-4 6.6667-6.6667 11.667-8 15-1.3333 2.6667-2 5-2 7v3l-1 1-1 1h-2v-5c0-3.3333 1.3333-8.3333 4-15 2.6667-7.3333 6.3333-14.667 11-22 4.6667-7.3333 8.3333-14.667 11-22l4-12v-6h-6l-1 1-1 1h-1v1h-1l-3 7c-2 4.6667-5.6667 14-11 28s-11.667 27.667-19 41c-7.3333 12.667-15 23.667-23 33-7.3333 8-14 14-20 18s-12.667 7.3333-20 10c-6.6667 2.6667-10.333 4.3333-11 5l-1 1h-2v1h-1v1h-3v1-3h1v-1h1v-1h1v-1h1v-1h1v-1c0.66667 0 7.3333-4.3333 20-13 13.333-9.3333 21.667-15.667 25-19 4-3.3333 8.6667-9.6667 14-19s10-18 14-26c2.6667-7.3333 1.6667-13.667-3-19-5.3333-6-9.6667-9-13-9-2.6667 0-5.6667 0.66666-9 2s-6 4-8 8-5.6667 14.667-11 32l-8 25-1 1-1 2v3h-1v1h-1v-4l1-3 1-3v-3h-1v1h-1v1l-1 1-1 1v1h-1v1h-1l-4 6c-3.3333 4.6667-5 7-5 7h-1v1h-1v1h-4l-1 1-1 1h-2v-1h1v-2h1v-1h1v-2l1-1c0.66667-0.66666 4-6.6667 10-18s9.6667-19 11-23l2-5v-4h-1v-1h-2v1h-1v2h-1v1h-1v2l-18 32c-12 21.333-18.667 33-20 35l-2 3v1h-1v1h-1v2h-1v1h-1v2h-1v1l-5 4-6 6h-1v1h-1v1h-1v1h-1v1h-1l-1 1-1 1h-1l-1 1h-1v-2h2v-2l1-1 1-1v-1h1v-1c0.66667 0 3-3 7-9 4-6.6667 9-16 15-28l9-17 1-1 1-1v-2h1v-1h1v-1c0-0.66666 4.6667-10.333 14-29s15-29.333 17-32c2.6667-2.6667 5-4 7-4 2.6667 0 5-1.6667 7-5 2-2.6667 5-7 9-13s6.6667-9.6667 8-11l3-1h2l3 1c1.3333 1.3333 4.6667 5.3333 10 12 4 6.6667 6.6667 11 8 13 1.3333 1.3333 2.3333 2 3 2h1v1l1 1 1 1v1h4v-3l7-15c4.6667-10 8.3333-16.667 11-20 3.3333-2.6667 6.6667-5.6667 10-9 4-3.3333 9.3333-9.6667 16-19s10.667-14.667 12-16c2-1.3333 4.6667-2.6667 8-4 3.3333 0 7.3333 1.6667 12 5 4 3.3333 8.6667 7 14 11 4 4.6667 8.3333 10 13 16 4.6667 6.6667 9.3333 12 14 16 5.3333 4 13.333 9.3333 24 16s18.333 11.333 23 14c4 4 6.3333 6 7 6 0.66666 0 1 0.33334 1 1z" fill-rule="evenodd" stroke-width="0"/>
</svg>
